<svg version="1.2" xmlns="http://www.w3.org/2000/svg" viewBox="0 0 160 160" width="160" height="160">
	<style>
		.s0 { fill: #000000 } 
	</style>
	<path id="Shape 1" fill-rule="evenodd" class="s0" d="m155 35.6v88.8q0 12.6-9 21.6-9 9-21.6 9h-88.8q-12.6 0-21.6-9-9-9-9-21.6v-88.8q0-12.6 9-21.6 9-9 21.6-9h88.8q12.6 0 21.6 9 9 9 9 21.6zm-30.6-17h-88.8q-7 0-12 5-5 5-5 12v88.8q0 7 5 12 5 5 12 5h88.8q7 0 12-5 5-5 5-12v-88.8q0-7-5-12-5-5-12-5z"/>
	<path id="F1" class="s0" d="m72.31 56.5h-15.47v19.5h-6.12v-42.5h23.69v4.56h-17.57v13.88h15.47zm37.81 19.5h-25.46v-4.57h9.78v-32.62l-10.16 2.5v-4.31l12.13-3.5h4.15v37.93h9.56z"/>
	<path id="F2" class="s0" d="m72.31 109.5h-15.47v19.5h-6.12v-42.5h23.69v4.56h-17.57v13.88h15.47zm15.75 14.93h22.06v4.57h-28.18v-2.07q0-3.93 0.84-6.84 0.84-2.94 2.56-5.25 1.75-2.34 4.38-4.25 2.65-1.91 6.25-3.84 1.97-1.07 3.34-2.13 1.38-1.09 2.25-2.25 0.91-1.15 1.31-2.37 0.41-1.22 0.41-2.57 0-1.53-0.62-2.81-0.6-1.28-1.69-2.22-1.1-0.93-2.63-1.43-1.53-0.54-3.4-0.54-1.72 0-3.25 0.32-1.53 0.31-2.94 0.84-1.41 0.5-2.72 1.16-1.31 0.62-2.56 1.31l-1.75-3.94q1-0.69 2.44-1.44 1.46-0.75 3.25-1.37 1.78-0.63 3.78-1.03 2.03-0.41 4.18-0.41 3.16 0 5.75 0.81 2.6 0.82 4.44 2.32 1.85 1.5 2.85 3.65 1 2.16 1 4.85 0 2.47-0.88 4.4-0.84 1.91-2.34 3.47-1.47 1.56-3.44 2.88-1.94 1.28-4.09 2.5-2.22 1.31-4.13 2.65-1.87 1.32-3.28 2.91-1.41 1.59-2.25 3.56-0.81 1.97-0.94 4.56z"/>
</svg>