<svg version="1.2" xmlns="http://www.w3.org/2000/svg" viewBox="0 0 160 160" width="160" height="160">
	<style>
		.s0 { fill: #000000 } 
	</style>
	<path id="Shape 1" fill-rule="evenodd" class="s0" d="m155 35.6v88.8q0 12.6-9 21.6-9 9-21.6 9h-88.8q-12.6 0-21.6-9-9-9-9-21.6v-88.8q0-12.6 9-21.6 9-9 21.6-9h88.8q12.6 0 21.6 9 9 9 9 21.6zm-30.6-17h-88.8q-7 0-12 5-5 5-5 12v88.8q0 7 5 12 5 5 12 5h88.8q7 0 12-5 5-5 5-12v-88.8q0-7-5-12-5-5-12-5z"/>
	<path id="F1" class="s0" d="m38.38 79.62c0.9 0 1.6-0.26 1.99-0.64l8.32-6.92c0.57-0.51 0.89-1.21 0.89-2.36v-5h2.24c0.9 0 1.6-0.25 1.99-0.64l8.32-6.91c0.57-0.51 0.89-1.21 0.89-2.37v-7.68c0-2.04-0.89-2.94-2.88-2.94l7.17-5.95c0.58-0.51 0.9-1.22 0.9-2.37v-7.62c0-2.04-0.9-2.94-2.95-2.94h-28.54c-0.9 0-1.6 0.19-2.05 0.58l-8.25 6.97c-0.58 0.51-0.9 1.22-0.9 2.37v41.47c0 2.05 0.9 2.95 2.94 2.95zm65.03 0c0.89 0 1.6-0.26 1.98-0.64l8.32-6.92c0.58-0.51 0.9-1.21 0.9-2.36v-7.75c0-2.05-0.9-2.94-2.95-2.94h-5.5v-30.79c0-2.04-0.9-2.94-2.94-2.94h-18.56c-0.9 0-1.6 0.19-2.05 0.58l-8.26 6.97c-0.57 0.51-0.89 1.22-0.89 2.37v7.74c0 2.05 0.89 2.95 2.94 2.95h5.25v13.5c-0.07 0.07-0.19 0.13-0.32 0.19l-8.26 6.98c-0.57 0.51-0.89 1.22-0.89 2.37v7.74c0 2.05 0.89 2.95 2.94 2.95z"/>
	<path id="F2" class="s0" d="m56.38 137.62c0.9 0 1.6-0.26 1.99-0.64l8.32-6.92c0.57-0.51 0.89-1.21 0.89-2.36v-5h2.24c0.9 0 1.6-0.25 1.99-0.64l8.32-6.91c0.57-0.51 0.89-1.21 0.89-2.37v-7.68c0-2.04-0.89-2.94-2.88-2.94l7.17-5.95c0.58-0.51 0.9-1.22 0.9-2.37v-7.62c0-2.04-0.9-2.94-2.95-2.94h-28.54c-0.9 0-1.6 0.19-2.05 0.58l-8.25 6.97c-0.58 0.51-0.9 1.22-0.9 2.37v41.47c0 2.05 0.9 2.95 2.94 2.95zm66.69 0c0.9 0 1.6-0.26 1.99-0.64l8.32-6.92c0.57-0.51 0.89-1.21 0.89-2.36v-7.49c0-2.05-0.89-2.95-2.94-2.95h-10.88c0.64-0.38 1.15-0.76 1.66-1.15l8.26-6.91c2.43-1.98 3.71-4.67 3.71-8.64v-6.02c0-7.29-4.16-11.26-11.9-11.26h-18.88c-0.9 0-1.6 0.19-2.05 0.58l-8.26 6.97c-0.57 0.51-0.89 1.22-0.89 2.37v7.49c0 2.05 0.89 2.94 2.94 2.94h9.28c-0.83 0.45-1.6 0.9-2.3 1.47l-8.26 6.98c-2.56 2.11-4.1 5.38-4.1 11.58v11.01c0 2.05 0.9 2.95 2.95 2.95z"/>
</svg>