<svg version="1.2" xmlns="http://www.w3.org/2000/svg" viewBox="0 0 160 160" width="160" height="160">
	<style>
		.s0 { fill: #000000 } 
	</style>
	<path id="Shape 1" fill-rule="evenodd" class="s0" d="m155 35.6v88.8q0 12.6-9 21.6-9 9-21.6 9h-88.8q-12.6 0-21.6-9-9-9-9-21.6v-88.8q0-12.6 9-21.6 9-9 21.6-9h88.8q12.6 0 21.6 9 9 9 9 21.6zm-30.6-17h-88.8q-7 0-12 5-5 5-5 12v88.8q0 7 5 12 5 5 12 5h88.8q7 0 12-5 5-5 5-12v-88.8q0-7-5-12-5-5-12-5z"/>
	<path id="f2" class="s0" aria-label="f2"  d="m85.1 120.5q-1.8-0.8-3.7-0.8-1.8 0-1.8 0.6 0 0.5 1.8 0.5 1.9 0 3.7-0.3zm11.5 12.6l0.2-0.3q-0.8-5-3-14.6-3.1 1.9-6.2 3 4.9 3.5 9 11.9zm-1-54q0-9.1-1.3-14.3-1.3-5.2-3.9-5.2-2.5 0-2.5 6.6 0 6.6 6 29.7 1.7-7.7 1.7-16.8zm3.4-9.1q0 6.4-1.4 14.2-1.3 7.8-3.2 13.7l4 15.4q5.5-4.6 8.6-9.5l0.4 0.8q-3.5 5.4-8.7 9.9 3.4 14 3.4 20.4 0 0.4-0.4 0.5-0.4 0-1.9 1.1-1.5 1-1.7 1.2-0.2 0.2-0.5 0.2-0.3 0-0.5-0.5-4.5-12.2-10.3-16-3.3 1-5.4 1-4.4 0-4.4-1.5 0-0.7 1.1-1.3 1.1-0.7 3.3-0.7 2.3 0 4.7 1.3 3.5-0.9 7.4-3.2-0.9-3.3-3.1-12.2-2.3-8.9-3.4-13.4-3.2-13.6-3.2-19.9 0-6.5 2.6-10.2 2.7-3.7 7.5-3.7 5.1 0 5.1 12.4zm-15.6 50.5q-1.8-0.8-3.7-0.8-1.8 0-1.8 0.6 0 0.5 1.8 0.5 1.9 0 3.7-0.3zm11.5 12.6l0.2-0.3q-0.8-5-3-14.6-3.1 1.9-6.3 3 5 3.5 9.1 11.9zm-1.1-54q0-9.1-1.3-14.3-1.2-5.2-3.8-5.2-2.5 0-2.5 6.6 0 6.6 5.9 29.7 1.7-7.7 1.7-16.8zm3.5-9.1q0 6.4-1.4 14.2-1.3 7.8-3.2 13.7l4 15.4q5.5-4.6 8.6-9.5l0.4 0.8q-3.5 5.4-8.7 9.9 3.3 14 3.3 20.4 0 0.4-0.4 0.5-0.3 0-1.8 1.1-1.5 1-1.7 1.2-0.2 0.2-0.5 0.2-0.3 0-0.5-0.5-4.5-12.2-10.3-16-3.3 1-5.4 1-4.4 0-4.4-1.5 0-0.7 1.1-1.3 1.1-0.7 3.3-0.7 2.3 0 4.7 1.3 3.5-0.9 7.4-3.2-0.9-3.3-3.2-12.2-2.2-8.9-3.3-13.4-3.2-13.6-3.2-19.9 0-6.5 2.6-10.2 2.6-3.7 7.5-3.7 5.1 0 5.1 12.4zm27 34.4q3.3 0 6.7 1.2 3.3 1.2 5.4 3.6 0.5 0.3 0.5 1.2l0.6 7.1-0.4 0.3q-6.6-9.1-15.7-9.1-2.6 0-5.2 0.7-2.5 0.8-3.8 1.5l-2 1.2q-0.4-0.2-0.4-0.7 0-0.5 0.3-1.2 0.2-0.7 1.3-1.8 1.1-1.2 2.8-2 4.7-4.6 8.6-15.9 3.9-11.2 3.9-19.7 0-8.4-4.6-8.4-3.4 0-6.2 2.2-2.8 2.2-2.8 5.6 0 2.2 1.2 3.4 1.2 1.3 3.1 1.3l1.6-0.4q0.6 0 0.9 0.5-0.2 0.6-2.5 2.4-2.2 1.8-4.3 1.8-2.1 0-3.5-1.9-1.3-1.9-1.3-4.7 0-5.3 6.2-9.4 6.2-4.2 12.6-4.2 6.3 0 6.3 7.5 0 7.4-4.9 18.8-4.9 11.3-10.8 19.9 2.5-0.6 6.4-0.8zm-1.7 0q3.3 0 6.6 1.2 3.4 1.2 5.5 3.6 0.5 0.3 0.5 1.2l0.5 7.1-0.3 0.3q-6.6-9.1-15.7-9.1-2.6 0-5.2 0.7-2.5 0.8-3.8 1.5l-2 1.2q-0.4-0.2-0.4-0.7 0-0.5 0.3-1.2 0.2-0.7 1.3-1.8 1.1-1.2 2.8-2 4.6-4.6 8.5-15.9 4-11.2 4-19.7 0-8.4-4.6-8.4-3.4 0-6.2 2.2-2.8 2.2-2.8 5.6 0 2.2 1.2 3.4 1.2 1.3 3.1 1.3l1.6-0.4q0.6 0 0.9 0.5-0.2 0.6-2.5 2.4-2.2 1.8-4.3 1.8-2.1 0-3.5-1.9-1.3-1.9-1.3-4.7 0-5.3 6.2-9.4 6.2-4.2 12.5-4.2 6.3 0 6.3 7.5 0 7.4-4.8 18.8-4.9 11.3-10.8 19.9 2.5-0.6 6.4-0.8z"/>
	<path id="f1" class="s0" aria-label="f1"  d="m32.1 87.5q-1.8-0.8-3.7-0.8-1.8 0-1.8 0.6 0 0.5 1.8 0.5 1.9 0 3.7-0.3zm11.5 12.6l0.2-0.3q-0.8-5-3-14.6-3.1 1.9-6.2 3 4.9 3.5 9 11.9zm-1-54q0-9.1-1.3-14.3-1.3-5.2-3.9-5.2-2.5 0-2.5 6.6 0 6.6 6 29.7 1.7-7.7 1.7-16.8zm3.4-9.1q0 6.4-1.4 14.2-1.3 7.8-3.2 13.7l4 15.4q5.5-4.6 8.6-9.5l0.4 0.8q-3.5 5.4-8.7 9.9 3.4 14 3.4 20.4 0 0.4-0.4 0.5-0.4 0-1.9 1.1-1.5 1-1.7 1.2-0.2 0.2-0.5 0.2-0.3 0-0.5-0.5-4.5-12.2-10.3-16-3.3 1-5.4 1-4.4 0-4.4-1.5 0-0.7 1.1-1.3 1.1-0.7 3.3-0.7 2.3 0 4.7 1.3 3.5-0.9 7.4-3.2-0.9-3.3-3.1-12.2-2.3-8.9-3.4-13.4-3.2-13.5-3.2-19.9 0-6.5 2.6-10.2 2.7-3.7 7.5-3.7 5.1 0 5.1 12.4zm-15.6 50.5q-1.8-0.8-3.7-0.8-1.8 0-1.8 0.6 0 0.5 1.8 0.5 1.9 0 3.7-0.3zm11.5 12.6l0.2-0.3q-0.8-5-3-14.6-3.1 1.9-6.3 3 5 3.5 9.1 11.9zm-1.1-54q0-9.1-1.3-14.3-1.2-5.2-3.8-5.2-2.5 0-2.5 6.6 0 6.6 5.9 29.7 1.7-7.7 1.7-16.8zm3.5-9.1q0 6.4-1.4 14.2-1.3 7.8-3.2 13.7l4 15.4q5.5-4.6 8.6-9.5l0.4 0.8q-3.5 5.4-8.7 9.9 3.3 14 3.3 20.4 0 0.4-0.4 0.5-0.3 0-1.8 1.1-1.5 1-1.7 1.2-0.2 0.2-0.5 0.2-0.3 0-0.5-0.5-4.5-12.2-10.3-16-3.3 1-5.4 1-4.4 0-4.4-1.5 0-0.7 1.1-1.3 1.1-0.7 3.3-0.7 2.3 0 4.7 1.3 3.5-0.9 7.4-3.2-0.9-3.3-3.2-12.2-2.2-8.9-3.3-13.4-3.2-13.5-3.2-19.9 0-6.5 2.6-10.2 2.6-3.7 7.5-3.7 5.1 0 5.1 12.4zm31.8 39.8l0.8 0.7q0.6 0.2 0.6 0.4v0.1q0 0.4-2.4 1.8-2.4 1.5-2.8 1.8-0.1 0.2-0.6 0.2-0.5 0-0.9-0.4-3.8-4.2-5.6-13.1-1.6-9-1.6-16.4l0.2-13.9q0-0.6-0.1-0.6h-0.1l-0.5 0.2q-3.3 1.8-6.8 1.8-1 0-2.6-0.3-0.5-0.2-0.5-0.6l0.5-0.4q2.2-0.5 4.1-1.7 2-1.2 3.2-2.5 1.1-1.3 2-2.6 1.2-1.8 1.6-3 0-0.3 0.7-0.3 3.2-0.2 4.7-0.8 0.1 0 0.1 0.4 0 0.2-0.4 2.4-1 6.7-1 15.2 0 8.5 0.8 14.3 0.9 5.8 2.1 8.9 2.6 6.7 4.5 8.4zm-1.7 0l0.8 0.7q0.5 0.2 0.5 0.4v0.1q0 0.4-2.4 1.8-2.4 1.5-2.8 1.8 0 0.2-0.5 0.2-0.6 0-0.9-0.4-3.8-4.2-5.6-13.1-1.7-9-1.7-16.4l0.3-13.9q0-0.6-0.1-0.6h-0.1l-0.5 0.2q-3.3 1.8-6.8 1.8-1 0-2.6-0.3-0.6-0.2-0.6-0.6l0.6-0.4q2.2-0.5 4.1-1.7 2-1.2 3.1-2.5 1.2-1.3 2.1-2.6 1.2-1.8 1.6-3 0-0.3 0.7-0.4 3.2-0.1 4.7-0.7 0.1 0 0.1 0.4 0 0.2-0.4 2.4-1 6.7-1 15.2 0 8.5 0.8 14.3 0.9 5.8 2.1 8.9 2.6 6.7 4.5 8.4z"/>
</svg>